<?xml version="1.0" encoding="UTF-8" standalone="no"?>
<svg
   xmlns:dc="http://purl.org/dc/elements/1.1/"
   xmlns:cc="http://creativecommons.org/ns#"
   xmlns:rdf="http://www.w3.org/1999/02/22-rdf-syntax-ns#"
   xmlns:svg="http://www.w3.org/2000/svg"
   xmlns="http://www.w3.org/2000/svg"
   viewBox="0 0 5120 2645.3333"
   height="2645.3333"
   width="5120"
   xml:space="preserve"
   id="svg2"
   version="1.1"><metadata
     id="metadata8"><rdf:RDF><cc:Work
         rdf:about=""><dc:format>image/svg+xml</dc:format><dc:type
           rdf:resource="http://purl.org/dc/dcmitype/StillImage" /></cc:Work></rdf:RDF></metadata><defs
     id="defs6"><clipPath
       id="clipPath18"
       clipPathUnits="userSpaceOnUse"><path
         id="path16"
         d="M 0,1984 H 3840 V 0 H 0 Z" /></clipPath></defs><g
     transform="matrix(1.3333333,0,0,-1.3333333,0,2645.3333)"
     id="g10"><g
       id="g12"><g
         clip-path="url(#clipPath18)"
         id="g14"><g
           transform="translate(3510.9707,689.4937)"
           id="g20"><path
             id="path22"
             style="fill:#e5e6e8;fill-opacity:1;fill-rule:nonzero;stroke:none"
             d="M 0,0 H 227.814 L -147.99,541.726 c -26.01,37.607 -62.783,67.156 -118.392,67.156 -57.401,0 -94.174,-32.235 -120.185,-67.156 L -770.443,0 h 218.845 L -411.353,197.978 -275.896,0 h 227.814 l -246.805,362.389 24.918,35.175 z" /></g><g
           transform="translate(2726.9343,1266.4453)"
           id="g24"><path
             id="path26"
             style="fill:#e5e6e8;fill-opacity:1;fill-rule:nonzero;stroke:none"
             d="m 0,0 c -7.792,0 -13.479,6.107 -13.479,13.795 0,7.581 5.687,13.794 13.374,13.794 7.687,0 13.268,-6.213 13.268,-13.9 C 13.163,6.107 7.582,0 0,0 m -0.105,31.064 c -9.898,0 -17.796,-7.687 -17.796,-17.269 0,-9.793 7.898,-17.481 17.796,-17.481 10.003,0 17.69,7.688 17.69,17.481 0,9.582 -7.687,17.269 -17.69,17.269 M -0.842,14.532 h -1.896 v 4.949 c 0.422,0.105 1.159,0.211 2.212,0.211 2.527,0 3.685,-1.054 3.685,-2.633 0,-1.79 -1.79,-2.527 -4.001,-2.527 m 4.738,-1.264 v 0.211 c 2.106,0.631 3.58,2.106 3.58,4.001 0,1.685 -0.737,3.054 -1.684,3.791 -1.264,0.737 -2.738,1.264 -6.003,1.264 -2.843,0 -5.054,-0.211 -6.633,-0.527 V 4.739 h 4.001 v 6.95 h 1.895 c 2.212,0 3.265,-0.843 3.581,-2.738 C 3.159,6.95 3.475,5.37 4.002,4.739 H 8.319 C 7.898,5.37 7.582,6.423 7.055,9.056 6.529,11.373 5.581,12.636 3.896,13.268" /></g><g
           transform="translate(1965.7601,884.4995)"
           id="g28"><path
             id="path30"
             style="fill:#e5e6e8;fill-opacity:1;fill-rule:nonzero;stroke:none"
             d="M 0,0 C 7.802,113.471 13.004,211.35 17.338,304.898 20.806,211.35 26.874,113.471 35.544,0 Z m -84.713,409.707 -71.088,-606.331 h 141.063 l 5.202,71.027 H 45.08 l 5.201,-71.027 h 139.818 l -71.088,606.331 z m -1158.911,-607.48 h 248.626 v 139.357 h -101.356 V 46.49 h 77.1 v 139.357 h -77.1 v 82.922 h 101.356 v 139.356 h -248.626 z m -158.699,383.62 h -31.186 v 222.278 h -147.27 v -605.898 h 147.27 V 46.49 h 31.186 v -244.263 h 147.271 v 605.898 h -147.271 z m -462.865,83.787 h 63.24 v -467.407 h 147.27 v 467.407 h 63.239 v 138.491 h -273.749 z m 2470.181,-64.24 h 137.756 v 61.455 c 0,114.255 -26.855,145.445 -130.81,145.445 h -54.578 c -103.955,0 -130.81,-31.19 -130.81,-145.445 v -14.714 c 0,-87.614 -3.138,-98.744 93.292,-178.146 84.222,-68.468 79.972,-55.395 79.972,-99.539 l -0.083,-12.281 c 0,-17.311 -0.076,-23.026 -12.143,-23.37 h -9.437 c -15.343,0.269 -13.86,6.059 -13.86,23.37 V 25.356 H 426.551 v -78.767 c 0,-114.255 26.855,-145.445 130.81,-145.445 h 54.578 c 103.955,0 130.81,31.19 130.81,145.445 v 26.833 c 0,91.705 -0.52,101.329 -104.65,185.642 -77.703,62.858 -70.248,50.578 -70.248,93.936 v 1.731 c -0.141,18.205 2.283,19.79 13.86,19.908 h 9.421 c 13.447,-0.169 13.949,-4.267 13.861,-23.37 z M 339.155,409.668 H 191.885 V -196.23 h 230.434 v 139.356 h -83.164 z m -624.089,-136.76 c 0,-43.279 0.866,-85.691 1.733,-132.432 -5.198,45.875 -12.128,90.019 -18.192,132.432 l -18.192,136.76 h -173.26 V -196.23 h 126.48 v 167.92 c 0,44.144 -0.867,85.692 -1.733,133.298 5.198,-46.741 11.262,-89.154 19.058,-133.298 l 30.321,-167.92 h 160.264 V 409.668 H -284.934 Z M -650.731,-196.23 h 147.27 v 605.897 h -147.27 z m -253.66,0 h 147.27 V 47.885 h 71.037 v 139.357 h -71.037 v 83.069 h 95.293 v 139.357 h -242.563 z" /></g></g></g></g></svg>